<svg xmlns="http://www.w3.org/2000/svg" viewBox="0 0 512 512">
  <rect width="512" height="512" rx="112" fill="#0a0a0a"/>
  <line x1="256.0" y1="86.0" x2="256.0" y2="60.0" stroke="#ffb224" stroke-width="10" stroke-linecap="round"/><line x1="275.0" y1="75.0" x2="276.5" y2="61.1" stroke="#ffb224" stroke-width="6" stroke-linecap="round"/><line x1="293.8" y1="78.0" x2="296.8" y2="64.3" stroke="#ffb224" stroke-width="6" stroke-linecap="round"/><line x1="312.2" y1="82.9" x2="316.6" y2="69.6" stroke="#ffb224" stroke-width="6" stroke-linecap="round"/><line x1="330.0" y1="89.7" x2="335.7" y2="76.9" stroke="#ffb224" stroke-width="6" stroke-linecap="round"/><line x1="341.0" y1="108.8" x2="354.0" y2="86.3" stroke="#ffb224" stroke-width="10" stroke-linecap="round"/><line x1="363.0" y1="108.8" x2="371.2" y2="97.4" stroke="#ffb224" stroke-width="6" stroke-linecap="round"/><line x1="377.8" y1="120.7" x2="387.1" y2="110.3" stroke="#ffb224" stroke-width="6" stroke-linecap="round"/><line x1="391.3" y1="134.2" x2="401.7" y2="124.9" stroke="#ffb224" stroke-width="6" stroke-linecap="round"/><line x1="403.2" y1="149.0" x2="414.6" y2="140.8" stroke="#ffb224" stroke-width="6" stroke-linecap="round"/><line x1="403.2" y1="171.0" x2="425.7" y2="158.0" stroke="#ffb224" stroke-width="10" stroke-linecap="round"/><line x1="422.3" y1="182.0" x2="435.1" y2="176.3" stroke="#ffb224" stroke-width="6" stroke-linecap="round"/><line x1="429.1" y1="199.8" x2="442.4" y2="195.4" stroke="#ffb224" stroke-width="6" stroke-linecap="round"/><line x1="434.0" y1="218.2" x2="447.7" y2="215.2" stroke="#ffb224" stroke-width="6" stroke-linecap="round"/><line x1="437.0" y1="237.0" x2="450.9" y2="235.5" stroke="#ffb224" stroke-width="6" stroke-linecap="round"/><line x1="426.0" y1="256.0" x2="452.0" y2="256.0" stroke="#ffb224" stroke-width="10" stroke-linecap="round"/><line x1="437.0" y1="275.0" x2="450.9" y2="276.5" stroke="#ffb224" stroke-width="6" stroke-linecap="round"/><line x1="434.0" y1="293.8" x2="447.7" y2="296.8" stroke="#ffb224" stroke-width="6" stroke-linecap="round"/><line x1="429.1" y1="312.2" x2="442.4" y2="316.6" stroke="#ffb224" stroke-width="6" stroke-linecap="round"/><line x1="422.3" y1="330.0" x2="435.1" y2="335.7" stroke="#ffb224" stroke-width="6" stroke-linecap="round"/><line x1="403.2" y1="341.0" x2="425.7" y2="354.0" stroke="#ffb224" stroke-width="10" stroke-linecap="round"/><line x1="403.2" y1="363.0" x2="414.6" y2="371.2" stroke="#ffb224" stroke-width="6" stroke-linecap="round"/><line x1="391.3" y1="377.8" x2="401.7" y2="387.1" stroke="#ffb224" stroke-width="6" stroke-linecap="round"/><line x1="377.8" y1="391.3" x2="387.1" y2="401.7" stroke="#ffb224" stroke-width="6" stroke-linecap="round"/><line x1="363.0" y1="403.2" x2="371.2" y2="414.6" stroke="#ffb224" stroke-width="6" stroke-linecap="round"/><line x1="341.0" y1="403.2" x2="354.0" y2="425.7" stroke="#ffb224" stroke-width="10" stroke-linecap="round"/><line x1="330.0" y1="422.3" x2="335.7" y2="435.1" stroke="#ffb224" stroke-width="6" stroke-linecap="round"/><line x1="312.2" y1="429.1" x2="316.6" y2="442.4" stroke="#ffb224" stroke-width="6" stroke-linecap="round"/><line x1="293.8" y1="434.0" x2="296.8" y2="447.7" stroke="#ffb224" stroke-width="6" stroke-linecap="round"/><line x1="275.0" y1="437.0" x2="276.5" y2="450.9" stroke="#ffb224" stroke-width="6" stroke-linecap="round"/><line x1="256.0" y1="426.0" x2="256.0" y2="452.0" stroke="#ffb224" stroke-width="10" stroke-linecap="round"/><line x1="237.0" y1="437.0" x2="235.5" y2="450.9" stroke="#ffb224" stroke-width="6" stroke-linecap="round"/><line x1="218.2" y1="434.0" x2="215.2" y2="447.7" stroke="#ffb224" stroke-width="6" stroke-linecap="round"/><line x1="199.8" y1="429.1" x2="195.4" y2="442.4" stroke="#ffb224" stroke-width="6" stroke-linecap="round"/><line x1="182.0" y1="422.3" x2="176.3" y2="435.1" stroke="#ffb224" stroke-width="6" stroke-linecap="round"/><line x1="171.0" y1="403.2" x2="158.0" y2="425.7" stroke="#ffb224" stroke-width="10" stroke-linecap="round"/><line x1="149.0" y1="403.2" x2="140.8" y2="414.6" stroke="#ffb224" stroke-width="6" stroke-linecap="round"/><line x1="134.2" y1="391.3" x2="124.9" y2="401.7" stroke="#ffb224" stroke-width="6" stroke-linecap="round"/><line x1="120.7" y1="377.8" x2="110.3" y2="387.1" stroke="#ffb224" stroke-width="6" stroke-linecap="round"/><line x1="108.8" y1="363.0" x2="97.4" y2="371.2" stroke="#ffb224" stroke-width="6" stroke-linecap="round"/><line x1="108.8" y1="341.0" x2="86.3" y2="354.0" stroke="#ffb224" stroke-width="10" stroke-linecap="round"/><line x1="89.7" y1="330.0" x2="76.9" y2="335.7" stroke="#ffb224" stroke-width="6" stroke-linecap="round"/><line x1="82.9" y1="312.2" x2="69.6" y2="316.6" stroke="#333333" stroke-width="6" stroke-linecap="round"/><line x1="78.0" y1="293.8" x2="64.3" y2="296.8" stroke="#333333" stroke-width="6" stroke-linecap="round"/><line x1="75.0" y1="275.0" x2="61.1" y2="276.5" stroke="#333333" stroke-width="6" stroke-linecap="round"/><line x1="86.0" y1="256.0" x2="60.0" y2="256.0" stroke="#5a5a5a" stroke-width="10" stroke-linecap="round"/><line x1="75.0" y1="237.0" x2="61.1" y2="235.5" stroke="#333333" stroke-width="6" stroke-linecap="round"/><line x1="78.0" y1="218.2" x2="64.3" y2="215.2" stroke="#333333" stroke-width="6" stroke-linecap="round"/><line x1="82.9" y1="199.8" x2="69.6" y2="195.4" stroke="#333333" stroke-width="6" stroke-linecap="round"/><line x1="89.7" y1="182.0" x2="76.9" y2="176.3" stroke="#333333" stroke-width="6" stroke-linecap="round"/><line x1="108.8" y1="171.0" x2="86.3" y2="158.0" stroke="#5a5a5a" stroke-width="10" stroke-linecap="round"/><line x1="108.8" y1="149.0" x2="97.4" y2="140.8" stroke="#333333" stroke-width="6" stroke-linecap="round"/><line x1="120.7" y1="134.2" x2="110.3" y2="124.9" stroke="#333333" stroke-width="6" stroke-linecap="round"/><line x1="134.2" y1="120.7" x2="124.9" y2="110.3" stroke="#333333" stroke-width="6" stroke-linecap="round"/><line x1="149.0" y1="108.8" x2="140.8" y2="97.4" stroke="#333333" stroke-width="6" stroke-linecap="round"/><line x1="171.0" y1="108.8" x2="158.0" y2="86.3" stroke="#5a5a5a" stroke-width="10" stroke-linecap="round"/><line x1="182.0" y1="89.7" x2="176.3" y2="76.9" stroke="#333333" stroke-width="6" stroke-linecap="round"/><line x1="199.8" y1="82.9" x2="195.4" y2="69.6" stroke="#333333" stroke-width="6" stroke-linecap="round"/><line x1="218.2" y1="78.0" x2="215.2" y2="64.3" stroke="#333333" stroke-width="6" stroke-linecap="round"/><line x1="237.0" y1="75.0" x2="235.5" y2="61.1" stroke="#333333" stroke-width="6" stroke-linecap="round"/>
  <rect x="196" y="196" width="120" height="120" rx="26" fill="none" stroke="#ffb224" stroke-width="16"/>
  <rect x="252" y="228" width="40" height="56" rx="8" fill="#ffb224"/>
</svg>
